<svg width="62" height="20" viewBox="0 0 62 20" fill="none" xmlns="http://www.w3.org/2000/svg">
<path d="M10 4L14 17H31L34.5 4H10Z" stroke="black"/>
<path d="M10 4L9 0.5H6" stroke="black"/>
<path d="M22.8313 8C22.7376 7.71307 22.614 7.45597 22.4606 7.2287C22.31 6.99858 22.1296 6.80256 21.9194 6.64063C21.712 6.4787 21.4762 6.35512 21.212 6.26989C20.9478 6.18466 20.658 6.14205 20.3427 6.14205C19.8256 6.14205 19.3555 6.27557 18.9322 6.54262C18.5089 6.80966 18.1722 7.20313 17.9222 7.72301C17.6722 8.2429 17.5472 8.88069 17.5472 9.63637C17.5472 10.392 17.6737 11.0298 17.9265 11.5497C18.1793 12.0696 18.5217 12.4631 18.9535 12.7301C19.3853 12.9972 19.8711 13.1307 20.4109 13.1307C20.9109 13.1307 21.3512 13.0242 21.7319 12.8111C22.1154 12.5952 22.4137 12.2912 22.6268 11.8992C22.8427 11.5043 22.9506 11.0398 22.9506 10.5057L23.2745 10.5739H20.6495V9.63637H23.9734V10.5739C23.9734 11.2926 23.82 11.9176 23.5131 12.4489C23.2092 12.9801 22.7887 13.392 22.2518 13.6847C21.7177 13.9744 21.1041 14.1193 20.4109 14.1193C19.6381 14.1193 18.9592 13.9375 18.3739 13.5739C17.7916 13.2102 17.337 12.6932 17.0103 12.0227C16.6864 11.3523 16.5245 10.5568 16.5245 9.63637C16.5245 8.94603 16.6168 8.32529 16.8015 7.77415C16.989 7.22017 17.2532 6.74858 17.5941 6.35938C17.935 5.97017 18.3384 5.67188 18.8043 5.46449C19.2702 5.25711 19.783 5.15341 20.3427 5.15341C20.8029 5.15341 21.2319 5.22301 21.6296 5.36222C22.0302 5.49858 22.3867 5.69318 22.6992 5.94603C23.0146 6.19603 23.2773 6.49574 23.4876 6.84517C23.6978 7.19176 23.8427 7.57671 23.9222 8H22.8313Z" fill="black"/>
<path d="M25.647 14V7.45455H26.6186V8.44319H26.6868C26.8061 8.11932 27.022 7.85654 27.3345 7.65483C27.647 7.45313 27.9993 7.35228 28.3913 7.35228C28.4652 7.35228 28.5575 7.3537 28.6683 7.35654C28.7791 7.35938 28.8629 7.36364 28.9197 7.36932V8.39205C28.8857 8.38353 28.8075 8.37074 28.6854 8.3537C28.5661 8.33381 28.4396 8.32387 28.3061 8.32387C27.9879 8.32387 27.7038 8.39063 27.4538 8.52415C27.2067 8.65483 27.0107 8.83665 26.8658 9.06961C26.7237 9.29972 26.6527 9.5625 26.6527 9.85796V14H25.647Z" fill="black"/>
<circle cx="14" cy="17" r="2.5" stroke="black"/>
<circle cx="31" cy="17" r="2.5" stroke="black"/>
<path d="M4 0.5H0.5M0.5 4H7.5M0.5 7.5H8.5" stroke="black"/>
<path d="M39.2221 8.45455C39.171 8.02273 38.9636 7.6875 38.6 7.44887C38.2363 7.21023 37.7903 7.09091 37.2619 7.09091C36.8755 7.09091 36.5375 7.15341 36.2477 7.27841C35.9608 7.40341 35.7363 7.57529 35.5744 7.79404C35.4153 8.01279 35.3358 8.26137 35.3358 8.53978C35.3358 8.77273 35.3912 8.97301 35.502 9.14063C35.6156 9.3054 35.7605 9.44318 35.9366 9.55398C36.1128 9.66193 36.2974 9.75142 36.4906 9.82245C36.6838 9.89063 36.8613 9.94603 37.0233 9.98864L37.9096 10.2273C38.1369 10.2869 38.3897 10.3693 38.6682 10.4744C38.9494 10.5795 39.2179 10.723 39.4735 10.9048C39.7321 11.0838 39.9451 11.3139 40.1128 11.5952C40.2804 11.8764 40.3642 12.2216 40.3642 12.6307C40.3642 13.1023 40.2406 13.5284 39.9934 13.9091C39.7491 14.2898 39.3912 14.5923 38.9196 14.8168C38.4508 15.0412 37.8812 15.1534 37.2108 15.1534C36.5858 15.1534 36.0446 15.0526 35.5872 14.8509C35.1326 14.6492 34.7747 14.3679 34.5133 14.0071C34.2548 13.6463 34.1085 13.2273 34.0744 12.75H35.1653C35.1937 13.0795 35.3045 13.3523 35.4977 13.5682C35.6937 13.7813 35.9409 13.9403 36.2392 14.0455C36.5403 14.1477 36.8642 14.1989 37.2108 14.1989C37.6142 14.1989 37.9764 14.1335 38.2974 14.0028C38.6184 13.8693 38.8727 13.6847 39.0602 13.4489C39.2477 13.2102 39.3414 12.9318 39.3414 12.6136C39.3414 12.3239 39.2605 12.0881 39.0985 11.9063C38.9366 11.7244 38.7235 11.5767 38.4593 11.4631C38.1951 11.3494 37.9096 11.25 37.6028 11.1648L36.5289 10.858C35.8471 10.6619 35.3074 10.3821 34.9096 10.0185C34.5119 9.65483 34.313 9.17898 34.313 8.59091C34.313 8.10228 34.4451 7.67614 34.7093 7.3125C34.9764 6.94603 35.3343 6.66193 35.7832 6.46023C36.2349 6.25568 36.7392 6.15341 37.296 6.15341C37.8585 6.15341 38.3585 6.25426 38.796 6.45597C39.2335 6.65483 39.5801 6.92756 39.8358 7.27415C40.0943 7.62074 40.2307 8.01421 40.2449 8.45455H39.2221Z" fill="black"/>
<path d="M42.9711 11.0625V15H41.9654V6.27273H42.9711V9.47728H43.0563C43.2097 9.13921 43.4398 8.87074 43.7466 8.67188C44.0563 8.47017 44.4682 8.36932 44.9824 8.36932C45.4285 8.36932 45.8191 8.45881 46.1543 8.63779C46.4895 8.81392 46.7495 9.08523 46.9341 9.45171C47.1216 9.81534 47.2154 10.2784 47.2154 10.8409V15H46.2097V10.9091C46.2097 10.3892 46.0748 9.98722 45.8049 9.70313C45.5378 9.4162 45.1671 9.27273 44.6927 9.27273C44.3631 9.27273 44.0677 9.34233 43.8063 9.48154C43.5478 9.62074 43.3432 9.82387 43.1927 10.0909C43.0449 10.358 42.9711 10.6818 42.9711 11.0625Z" fill="black"/>
<path d="M51.7143 15.1364C51.1234 15.1364 50.6049 14.9957 50.1589 14.7145C49.7157 14.4332 49.3691 14.0398 49.1191 13.5341C48.872 13.0284 48.7484 12.4375 48.7484 11.7614C48.7484 11.0795 48.872 10.4844 49.1191 9.97586C49.3691 9.46733 49.7157 9.07245 50.1589 8.7912C50.6049 8.50995 51.1234 8.36932 51.7143 8.36932C52.3052 8.36932 52.8223 8.50995 53.2655 8.7912C53.7115 9.07245 54.0581 9.46733 54.3052 9.97586C54.5552 10.4844 54.6802 11.0795 54.6802 11.7614C54.6802 12.4375 54.5552 13.0284 54.3052 13.5341C54.0581 14.0398 53.7115 14.4332 53.2655 14.7145C52.8223 14.9957 52.3052 15.1364 51.7143 15.1364ZM51.7143 14.233C52.1632 14.233 52.5325 14.1179 52.8223 13.8878C53.112 13.6577 53.3265 13.3551 53.4657 12.9801C53.6049 12.6051 53.6745 12.1989 53.6745 11.7614C53.6745 11.3239 53.6049 10.9162 53.4657 10.5384C53.3265 10.1605 53.112 9.85512 52.8223 9.62216C52.5325 9.38921 52.1632 9.27273 51.7143 9.27273C51.2655 9.27273 50.8961 9.38921 50.6064 9.62216C50.3166 9.85512 50.1021 10.1605 49.9629 10.5384C49.8237 10.9162 49.7541 11.3239 49.7541 11.7614C49.7541 12.1989 49.8237 12.6051 49.9629 12.9801C50.1021 13.3551 50.3166 13.6577 50.6064 13.8878C50.8961 14.1179 51.2655 14.233 51.7143 14.233Z" fill="black"/>
<path d="M56.2154 17.4545V8.45455H57.187V9.49432H57.3063C57.3802 9.38068 57.4824 9.2358 57.6131 9.05966C57.7466 8.88069 57.937 8.72159 58.1841 8.58239C58.4341 8.44034 58.7722 8.36932 59.1983 8.36932C59.7495 8.36932 60.2353 8.50711 60.6557 8.78267C61.0762 9.05824 61.4043 9.44887 61.6401 9.95455C61.8759 10.4602 61.9938 11.0568 61.9938 11.7443C61.9938 12.4375 61.8759 13.0384 61.6401 13.5469C61.4043 14.0526 61.0776 14.4446 60.66 14.723C60.2424 14.9986 59.7608 15.1364 59.2154 15.1364C58.7949 15.1364 58.4583 15.0668 58.2054 14.9276C57.9526 14.7855 57.758 14.625 57.6216 14.446C57.4853 14.2642 57.3802 14.1136 57.3063 13.9943H57.2211V17.4545H56.2154ZM57.204 11.7273C57.204 12.2216 57.2765 12.6577 57.4213 13.0355C57.5662 13.4105 57.7779 13.7045 58.0563 13.9176C58.3347 14.1278 58.6756 14.233 59.079 14.233C59.4995 14.233 59.8503 14.1222 60.1316 13.9006C60.4157 13.6761 60.6287 13.375 60.7708 12.9972C60.9157 12.6165 60.9881 12.1932 60.9881 11.7273C60.9881 11.267 60.9171 10.8523 60.775 10.483C60.6358 10.1108 60.4242 9.81676 60.1401 9.60086C59.8588 9.38211 59.5052 9.27273 59.079 9.27273C58.6699 9.27273 58.3262 9.37642 58.0478 9.58381C57.7694 9.78836 57.5591 10.0753 57.4171 10.4446C57.275 10.8111 57.204 11.2386 57.204 11.7273Z" fill="black"/>
</svg>
